<svg width="166" height="31" viewBox="0 0 166 31" fill="none" xmlns="http://www.w3.org/2000/svg">
<path d="M0.919922 0.879998H20.3999V5.36H12.8799V30H8.23992V5.36H0.919922V0.879998Z" fill="white"/>
<path d="M39.3874 15.48C39.3874 13.4533 39.7741 11.5467 40.5474 9.76C41.3208 7.97333 42.3874 6.38667 43.7474 5C45.1074 3.61333 46.6808 2.53333 48.4674 1.76C50.2808 0.959998 52.2141 0.559998 54.2674 0.559998C56.2941 0.559998 58.2008 0.959998 59.9874 1.76C61.8008 2.53333 63.3874 3.61333 64.7474 5C66.1341 6.38667 67.2141 7.97333 67.9874 9.76C68.7874 11.5467 69.1874 13.4533 69.1874 15.48C69.1874 17.5333 68.7874 19.4533 67.9874 21.24C67.2141 23.0267 66.1341 24.6133 64.7474 26C63.3874 27.36 61.8008 28.4267 59.9874 29.2C58.2008 29.9467 56.2941 30.32 54.2674 30.32C52.1874 30.32 50.2541 29.9467 48.4674 29.2C46.6808 28.4267 45.1074 27.3733 43.7474 26.04C42.3874 24.68 41.3208 23.1067 40.5474 21.32C39.7741 19.5067 39.3874 17.56 39.3874 15.48ZM44.1874 15.48C44.1874 16.92 44.4408 18.2667 44.9474 19.52C45.4808 20.7733 46.2141 21.88 47.1474 22.84C48.0808 23.7733 49.1608 24.5067 50.3874 25.04C51.6141 25.5733 52.9474 25.84 54.3874 25.84C55.7741 25.84 57.0674 25.5733 58.2674 25.04C59.4941 24.5067 60.5608 23.7733 61.4674 22.84C62.3741 21.88 63.0808 20.7733 63.5874 19.52C64.1208 18.2667 64.3874 16.92 64.3874 15.48C64.3874 14.0133 64.1208 12.6533 63.5874 11.4C63.0541 10.1467 62.3341 9.04 61.4274 8.08C60.5208 7.12 59.4541 6.37333 58.2274 5.84C57.0008 5.30667 55.6808 5.04 54.2674 5.04C52.8541 5.04 51.5341 5.30667 50.3074 5.84C49.0808 6.37333 48.0008 7.12 47.0674 8.08C46.1608 9.04 45.4541 10.16 44.9474 11.44C44.4408 12.6933 44.1874 14.04 44.1874 15.48Z" fill="white"/>
<path d="M91.4062 30V0.879998H99.6862C102.593 0.879998 105.06 1.32 107.086 2.2C109.113 3.05333 110.753 4.21333 112.006 5.68C113.26 7.12 114.166 8.73333 114.726 10.52C115.313 12.28 115.606 14.0533 115.606 15.84C115.606 18.0267 115.22 19.9867 114.446 21.72C113.673 23.4533 112.62 24.9467 111.286 26.2C109.953 27.4267 108.406 28.3733 106.646 29.04C104.913 29.68 103.06 30 101.086 30H91.4062ZM96.0862 25.52H100.246C101.793 25.52 103.206 25.3067 104.486 24.88C105.766 24.4267 106.873 23.7867 107.806 22.96C108.766 22.1067 109.5 21.0533 110.006 19.8C110.54 18.5467 110.806 17.12 110.806 15.52C110.806 13.7067 110.5 12.16 109.886 10.88C109.3 9.57333 108.513 8.52 107.526 7.72C106.566 6.89333 105.513 6.29333 104.366 5.92C103.22 5.54666 102.086 5.36 100.966 5.36H96.0862V25.52Z" fill="white"/>
<path d="M136.036 15.48C136.036 13.4533 136.423 11.5467 137.196 9.76C137.969 7.97333 139.036 6.38667 140.396 5C141.756 3.61333 143.329 2.53333 145.116 1.76C146.929 0.959998 148.863 0.559998 150.916 0.559998C152.943 0.559998 154.849 0.959998 156.636 1.76C158.449 2.53333 160.036 3.61333 161.396 5C162.783 6.38667 163.863 7.97333 164.636 9.76C165.436 11.5467 165.836 13.4533 165.836 15.48C165.836 17.5333 165.436 19.4533 164.636 21.24C163.863 23.0267 162.783 24.6133 161.396 26C160.036 27.36 158.449 28.4267 156.636 29.2C154.849 29.9467 152.943 30.32 150.916 30.32C148.836 30.32 146.903 29.9467 145.116 29.2C143.329 28.4267 141.756 27.3733 140.396 26.04C139.036 24.68 137.969 23.1067 137.196 21.32C136.423 19.5067 136.036 17.56 136.036 15.48ZM140.836 15.48C140.836 16.92 141.089 18.2667 141.596 19.52C142.129 20.7733 142.863 21.88 143.796 22.84C144.729 23.7733 145.809 24.5067 147.036 25.04C148.263 25.5733 149.596 25.84 151.036 25.84C152.423 25.84 153.716 25.5733 154.916 25.04C156.143 24.5067 157.209 23.7733 158.116 22.84C159.023 21.88 159.729 20.7733 160.236 19.52C160.769 18.2667 161.036 16.92 161.036 15.48C161.036 14.0133 160.769 12.6533 160.236 11.4C159.703 10.1467 158.983 9.04 158.076 8.08C157.169 7.12 156.103 6.37333 154.876 5.84C153.649 5.30667 152.329 5.04 150.916 5.04C149.503 5.04 148.183 5.30667 146.956 5.84C145.729 6.37333 144.649 7.12 143.716 8.08C142.809 9.04 142.103 10.16 141.596 11.44C141.089 12.6933 140.836 14.04 140.836 15.48Z" fill="white"/>
</svg>
